<svg width="107.000000pt" height="107.000000pt" viewBox="0 0 620 600" fill="none" xmlns="http://www.w3.org/2000/svg">
    <path d="M393.361 139.919C374.526 120.733 344.244 106.948 317.351 103.566C297.13 101.011 280.496 109.379 268.395 125.637C197.229 221.269 354.817 285.825 343.119 380.14C338.043 421.104 286.234 412.008 261.954 429.492C229.199 453.072 259.239 491.768 215.57 508.694"
          stroke="#93AA68" stroke-opacity="0.9" stroke-width="20" stroke-linecap="round" stroke-linejoin="round"/>
    <path d="M288.173 257.517C352.78 292.08 455.008 291.433 501.37 219.918" stroke="#93AA68" stroke-opacity="0.9"
          stroke-width="20" stroke-linecap="round" stroke-linejoin="round"/>
    <path d="M501.371 219.918C576.821 255.19 610 306.459 610 383.37" stroke="#93AA68" stroke-opacity="0.9"
          stroke-width="20" stroke-linecap="round" stroke-linejoin="round"/>
    <path d="M610 383.37C601.963 341.253 503.267 294.867 510.932 363.639" stroke="#93AA68" stroke-opacity="0.9"
          stroke-width="20" stroke-linecap="round" stroke-linejoin="round"/>
    <path d="M510.508 364.081C490.994 340.134 413.046 311.057 413.046 361.058" stroke="#93AA68" stroke-opacity="0.9"
          stroke-width="20" stroke-linecap="round" stroke-linejoin="round"/>
    <path d="M277.005 260.919C204.265 276.398 127.258 259.571 71.9297 219.918" stroke="#93AA68" stroke-opacity="0.9"
          stroke-width="20" stroke-linecap="round" stroke-linejoin="round"/>
    <path d="M71.1149 219.787C21.0348 230.879 -0.549109 331.33 14.929 375.352" stroke="#93AA68" stroke-opacity="0.9"
          stroke-width="20" stroke-linecap="round" stroke-linejoin="round"/>
    <path d="M218.122 345.006C157.25 308.945 157.934 350.612 134.675 360.726C119.962 367.124 105.154 343.714 88.7838 345.006C59.9694 347.28 38.9011 363.152 15.0771 375.248"
          stroke="#93AA68" stroke-opacity="0.9" stroke-width="20" stroke-linecap="round" stroke-linejoin="round"/>
    <path d="M349.847 92C346.726 102.895 354.204 104.359 359.814 111.446" stroke="#93AA68" stroke-opacity="0.9"
          stroke-width="20" stroke-linecap="round" stroke-linejoin="round"/>
</svg>
