<svg width="54" height="54" viewBox="0 0 54 54" fill="none" xmlns="http://www.w3.org/2000/svg">
    <path d="M32.5087 16.2811C31.2564 15.0055 29.243 14.089 27.455 13.8641C26.1105 13.6943 25.0046 14.2506 24.2 15.3316C19.4684 21.6899 29.946 25.9821 29.1682 32.2529C28.8307 34.9765 25.3861 34.3717 23.7717 35.5342C21.5939 37.1019 23.5913 39.6747 20.6878 40.8001"
          stroke="#93AA68" stroke-opacity="0.9" stroke-width="2.16" stroke-linecap="round" stroke-linejoin="round"/>
    <path d="M25.4897 23.6781C29.7995 25.5965 36.6189 25.5606 39.7116 21.5913" stroke="#93AA68" stroke-opacity="0.9"
          stroke-width="2.16" stroke-linecap="round" stroke-linejoin="round"/>
    <path d="M40.6354 22.1455C44.9971 24.3775 46.9152 27.6218 46.9152 32.4887" stroke="#93AA68" stroke-opacity="0.9"
          stroke-width="2.16" stroke-linecap="round" stroke-linejoin="round"/>
    <path d="M46.7302 32.3038C46.208 29.6077 39.7953 26.6384 40.2933 31.0407" stroke="#93AA68" stroke-opacity="0.9"
          stroke-width="2.16" stroke-linecap="round" stroke-linejoin="round"/>
    <path d="M39.5273 31.0105C38.3809 29.5583 33.8016 27.7951 33.8016 30.8272" stroke="#93AA68" stroke-opacity="0.9"
          stroke-width="2.16" stroke-linecap="round" stroke-linejoin="round"/>
    <path d="M23.4585 24.3479C19.2657 25.3886 14.8269 24.2573 11.6377 21.5913" stroke="#93AA68" stroke-opacity="0.9"
          stroke-width="2.16" stroke-linecap="round" stroke-linejoin="round"/>
    <path d="M11.0833 21.5913C7.75358 22.3288 6.31851 29.0075 7.34762 31.9345" stroke="#93AA68" stroke-opacity="0.9"
          stroke-width="2.16" stroke-linecap="round" stroke-linejoin="round"/>
    <path d="M20.8723 29.9932C17.107 27.4584 17.1493 30.3872 15.7106 31.0981C14.8006 31.5478 13.8846 29.9023 12.872 29.9932C11.0896 30.153 9.78645 31.2686 8.31281 32.1189"
          stroke="#93AA68" stroke-opacity="0.9" stroke-width="2.16" stroke-linecap="round" stroke-linejoin="round"/>
    <path d="M29.6155 13.0952C29.408 13.8196 29.9052 13.917 30.2782 14.3881" stroke="#93AA68" stroke-opacity="0.9"
          stroke-width="2.16" stroke-linecap="round" stroke-linejoin="round"/>
</svg>
